<svg width="56" height="56" viewBox="0 0 56 56" fill="none" xmlns="http://www.w3.org/2000/svg">
<path d="M11.6667 51.3334C10.3833 51.3334 9.28472 50.8765 8.37083 49.9626C7.45694 49.0487 7 47.9501 7 46.6667V14.0001C7 12.7167 7.45694 11.6181 8.37083 10.7042C9.28472 9.79036 10.3833 9.33341 11.6667 9.33341H14V7.00008C14 6.33897 14.2236 5.7848 14.6708 5.33758C15.1181 4.89036 15.6722 4.66675 16.3333 4.66675C16.9944 4.66675 17.5486 4.89036 17.9958 5.33758C18.4431 5.7848 18.6667 6.33897 18.6667 7.00008V9.33341H37.3333V7.00008C37.3333 6.33897 37.5569 5.7848 38.0042 5.33758C38.4514 4.89036 39.0056 4.66675 39.6667 4.66675C40.3278 4.66675 40.8819 4.89036 41.3292 5.33758C41.7764 5.7848 42 6.33897 42 7.00008V9.33341H44.3333C45.6167 9.33341 46.7153 9.79036 47.6292 10.7042C48.5431 11.6181 49 12.7167 49 14.0001V46.6667C49 47.9501 48.5431 49.0487 47.6292 49.9626C46.7153 50.8765 45.6167 51.3334 44.3333 51.3334H11.6667ZM11.6667 46.6667H44.3333V23.3334H11.6667V46.6667ZM28 32.6667C27.3389 32.6667 26.7847 32.4431 26.3375 31.9959C25.8903 31.5487 25.6667 30.9945 25.6667 30.3334C25.6667 29.6723 25.8903 29.1181 26.3375 28.6709C26.7847 28.2237 27.3389 28.0001 28 28.0001C28.6611 28.0001 29.2153 28.2237 29.6625 28.6709C30.1097 29.1181 30.3333 29.6723 30.3333 30.3334C30.3333 30.9945 30.1097 31.5487 29.6625 31.9959C29.2153 32.4431 28.6611 32.6667 28 32.6667ZM18.6667 32.6667C18.0056 32.6667 17.4514 32.4431 17.0042 31.9959C16.5569 31.5487 16.3333 30.9945 16.3333 30.3334C16.3333 29.6723 16.5569 29.1181 17.0042 28.6709C17.4514 28.2237 18.0056 28.0001 18.6667 28.0001C19.3278 28.0001 19.8819 28.2237 20.3292 28.6709C20.7764 29.1181 21 29.6723 21 30.3334C21 30.9945 20.7764 31.5487 20.3292 31.9959C19.8819 32.4431 19.3278 32.6667 18.6667 32.6667ZM37.3333 32.6667C36.6722 32.6667 36.1181 32.4431 35.6708 31.9959C35.2236 31.5487 35 30.9945 35 30.3334C35 29.6723 35.2236 29.1181 35.6708 28.6709C36.1181 28.2237 36.6722 28.0001 37.3333 28.0001C37.9944 28.0001 38.5486 28.2237 38.9958 28.6709C39.4431 29.1181 39.6667 29.6723 39.6667 30.3334C39.6667 30.9945 39.4431 31.5487 38.9958 31.9959C38.5486 32.4431 37.9944 32.6667 37.3333 32.6667ZM28 42.0001C27.3389 42.0001 26.7847 41.7765 26.3375 41.3292C25.8903 40.882 25.6667 40.3279 25.6667 39.6667C25.6667 39.0056 25.8903 38.4515 26.3375 38.0042C26.7847 37.557 27.3389 37.3334 28 37.3334C28.6611 37.3334 29.2153 37.557 29.6625 38.0042C30.1097 38.4515 30.3333 39.0056 30.3333 39.6667C30.3333 40.3279 30.1097 40.882 29.6625 41.3292C29.2153 41.7765 28.6611 42.0001 28 42.0001ZM18.6667 42.0001C18.0056 42.0001 17.4514 41.7765 17.0042 41.3292C16.5569 40.882 16.3333 40.3279 16.3333 39.6667C16.3333 39.0056 16.5569 38.4515 17.0042 38.0042C17.4514 37.557 18.0056 37.3334 18.6667 37.3334C19.3278 37.3334 19.8819 37.557 20.3292 38.0042C20.7764 38.4515 21 39.0056 21 39.6667C21 40.3279 20.7764 40.882 20.3292 41.3292C19.8819 41.7765 19.3278 42.0001 18.6667 42.0001ZM37.3333 42.0001C36.6722 42.0001 36.1181 41.7765 35.6708 41.3292C35.2236 40.882 35 40.3279 35 39.6667C35 39.0056 35.2236 38.4515 35.6708 38.0042C36.1181 37.557 36.6722 37.3334 37.3333 37.3334C37.9944 37.3334 38.5486 37.557 38.9958 38.0042C39.4431 38.4515 39.6667 39.0056 39.6667 39.6667C39.6667 40.3279 39.4431 40.882 38.9958 41.3292C38.5486 41.7765 37.9944 42.0001 37.3333 42.0001Z" fill="white"/>
</svg>
