<svg width="12" height="12" viewBox="0 0 12 12" fill="none" xmlns="http://www.w3.org/2000/svg">
<path d="M6 6.84961L1.02539 11.8242C0.908203 11.9414 0.767578 12 0.603516 12C0.431641 12 0.287109 11.9434 0.169922 11.8301C0.0566406 11.7129 0 11.5684 0 11.3965C0 11.2324 0.0585938 11.0918 0.175781 10.9746L5.15039 6L0.175781 1.02539C0.0585938 0.908203 0 0.765625 0 0.597656C0 0.515625 0.015625 0.4375 0.046875 0.363281C0.078125 0.289062 0.121094 0.226563 0.175781 0.175781C0.230469 0.121094 0.294922 0.078125 0.369141 0.046875C0.443359 0.015625 0.521484 0 0.603516 0C0.767578 0 0.908203 0.0585938 1.02539 0.175781L6 5.15039L10.9746 0.175781C11.0918 0.0585938 11.2344 0 11.4023 0C11.4844 0 11.5605 0.015625 11.6309 0.046875C11.7051 0.078125 11.7695 0.121094 11.8242 0.175781C11.8789 0.230469 11.9219 0.294922 11.9531 0.369141C11.9844 0.439453 12 0.515625 12 0.597656C12 0.765625 11.9414 0.908203 11.8242 1.02539L6.84961 6L11.8242 10.9746C11.9414 11.0918 12 11.2324 12 11.3965C12 11.4785 11.9844 11.5566 11.9531 11.6309C11.9219 11.7051 11.8789 11.7695 11.8242 11.8242C11.7734 11.8789 11.7109 11.9219 11.6367 11.9531C11.5625 11.9844 11.4844 12 11.4023 12C11.2344 12 11.0918 11.9414 10.9746 11.8242L6 6.84961Z" fill="white"/>
</svg>
