<svg width="25" height="25" viewBox="0 0 25 25" fill="none" xmlns="http://www.w3.org/2000/svg">
<path d="M5.20833 22.9166C4.63542 22.9166 4.14497 22.7126 3.73698 22.3046C3.32899 21.8966 3.125 21.4062 3.125 20.8333V6.24992C3.125 5.677 3.32899 5.18655 3.73698 4.77856C4.14497 4.37058 4.63542 4.16659 5.20833 4.16659H6.25V3.12492C6.25 2.82978 6.34983 2.58238 6.54948 2.38273C6.74913 2.18308 6.99653 2.08325 7.29167 2.08325C7.58681 2.08325 7.8342 2.18308 8.03385 2.38273C8.23351 2.58238 8.33333 2.82978 8.33333 3.12492V4.16659H16.6667V3.12492C16.6667 2.82978 16.7665 2.58238 16.9661 2.38273C17.1658 2.18308 17.4132 2.08325 17.7083 2.08325C18.0035 2.08325 18.2509 2.18308 18.4505 2.38273C18.6502 2.58238 18.75 2.82978 18.75 3.12492V4.16659H19.7917C20.3646 4.16659 20.855 4.37058 21.263 4.77856C21.671 5.18655 21.875 5.677 21.875 6.24992V10.4426C21.875 10.7378 21.7752 10.9852 21.5755 11.1848C21.3759 11.3845 21.1285 11.4843 20.8333 11.4843C20.5382 11.4843 20.2908 11.3845 20.0911 11.1848C19.8915 10.9852 19.7917 10.7378 19.7917 10.4426V10.4166H5.20833V20.8333H11.4583C11.7535 20.8333 12.0009 20.9331 12.2005 21.1327C12.4002 21.3324 12.5 21.5798 12.5 21.8749C12.5 22.1701 12.4002 22.4175 12.2005 22.6171C12.0009 22.8168 11.7535 22.9166 11.4583 22.9166H5.20833ZM14.5833 21.8749V20.1562C14.5833 20.0173 14.6094 19.8827 14.6615 19.7525C14.7135 19.6223 14.7917 19.5051 14.8958 19.401L20.3385 13.9843C20.4948 13.828 20.6684 13.7152 20.8594 13.6458C21.0503 13.5763 21.2413 13.5416 21.4323 13.5416C21.6406 13.5416 21.8403 13.5806 22.0312 13.6588C22.2222 13.7369 22.3958 13.8541 22.5521 14.0103L23.5156 14.9739C23.6545 15.1301 23.763 15.3037 23.8411 15.4947C23.9193 15.6857 23.9583 15.8767 23.9583 16.0676C23.9583 16.2586 23.9236 16.4539 23.8542 16.6536C23.7847 16.8532 23.6719 17.0312 23.5156 17.1874L18.099 22.6041C17.9948 22.7083 17.8776 22.7864 17.7474 22.8385C17.6172 22.8905 17.4826 22.9166 17.3438 22.9166H15.625C15.3299 22.9166 15.0825 22.8168 14.8828 22.6171C14.6832 22.4175 14.5833 22.1701 14.5833 21.8749ZM21.4323 17.0833L22.3958 16.0676L21.4323 15.1041L20.4427 16.0937L21.4323 17.0833Z" fill="white"/>
</svg>
