<svg width="16" height="12" viewBox="0 0 16 12" fill="none" xmlns="http://www.w3.org/2000/svg">
<path d="M0 6.66406C0 6.60677 0.0078125 6.54948 0.0234375 6.49219C0.179688 5.90365 0.401042 5.35156 0.6875 4.83594C0.979167 4.3151 1.32031 3.83854 1.71094 3.40625C2.10677 2.97396 2.54167 2.58854 3.01562 2.25C3.49479 1.91146 4.0026 1.625 4.53906 1.39062C5.08073 1.15104 5.64323 0.971354 6.22656 0.851562C6.8099 0.726562 7.40104 0.664062 8 0.664062C8.59375 0.664062 9.17969 0.726562 9.75781 0.851562C10.3411 0.971354 10.901 1.14844 11.4375 1.38281C11.9792 1.61719 12.4896 1.90625 12.9688 2.25C13.4531 2.58854 13.8906 2.97396 14.2812 3.40625C14.6771 3.83333 15.0182 4.30469 15.3047 4.82031C15.5964 5.33594 15.8203 5.88802 15.9766 6.47656C15.9922 6.53385 16 6.59375 16 6.65625C16 6.84375 15.9349 7.0026 15.8047 7.13281C15.6797 7.25781 15.5234 7.32031 15.3359 7.32031C15.1797 7.32031 15.0443 7.27604 14.9297 7.1875C14.8203 7.09896 14.7396 6.98177 14.6875 6.83594C14.6406 6.6901 14.5938 6.55469 14.5469 6.42969C14.5052 6.30469 14.4609 6.18229 14.4141 6.0625C14.3672 5.9375 14.3151 5.8151 14.2578 5.69531C14.2005 5.57552 14.1302 5.44792 14.0469 5.3125C13.7396 4.79688 13.3672 4.33594 12.9297 3.92969C12.4974 3.51823 12.0208 3.17188 11.5 2.89062C10.9792 2.60417 10.4271 2.38542 9.84375 2.23438C9.26562 2.07812 8.67969 2 8.08594 2H7.91406C7.32031 2 6.73177 2.07812 6.14844 2.23438C5.57031 2.38542 5.02083 2.60417 4.5 2.89062C3.97917 3.17708 3.5 3.52604 3.0625 3.9375C2.625 4.34375 2.25521 4.80469 1.95312 5.32031C1.86979 5.45573 1.79948 5.58594 1.74219 5.71094C1.6849 5.83073 1.63281 5.95052 1.58594 6.07031C1.53906 6.1901 1.49219 6.3125 1.44531 6.4375C1.40365 6.5625 1.35938 6.69792 1.3125 6.84375C1.26042 6.98958 1.17969 7.10938 1.07031 7.20312C0.960938 7.29167 0.825521 7.33594 0.664062 7.33594C0.575521 7.33594 0.489583 7.31771 0.40625 7.28125C0.328125 7.24479 0.257812 7.19792 0.195312 7.14062C0.138021 7.07812 0.0911458 7.00781 0.0546875 6.92969C0.0182292 6.84635 0 6.75781 0 6.66406ZM4 7.33594V7.25781C4 6.71615 4.10677 6.20833 4.32031 5.73438C4.53906 5.25521 4.83073 4.83854 5.19531 4.48438C5.5651 4.13021 5.98958 3.85156 6.46875 3.64844C6.95312 3.4401 7.46354 3.33594 8 3.33594C8.55208 3.33594 9.07031 3.4401 9.55469 3.64844C10.0443 3.85677 10.4688 4.14323 10.8281 4.50781C11.1927 4.86719 11.4792 5.29167 11.6875 5.78125C11.8958 6.26562 12 6.78385 12 7.33594C12 7.88802 11.8958 8.40885 11.6875 8.89844C11.4792 9.38281 11.1927 9.80729 10.8281 10.1719C10.4688 10.5312 10.0443 10.8151 9.55469 11.0234C9.07031 11.2318 8.55208 11.3359 8 11.3359C7.44792 11.3359 6.92708 11.2318 6.4375 11.0234C5.95312 10.8151 5.52865 10.5312 5.16406 10.1719C4.80469 9.80729 4.52083 9.38281 4.3125 8.89844C4.10417 8.40885 4 7.88802 4 7.33594ZM10.6641 7.33594V7.28125C10.6641 6.92188 10.5911 6.58333 10.4453 6.26562C10.3047 5.94792 10.112 5.67188 9.86719 5.4375C9.6224 5.19792 9.33854 5.01042 9.01562 4.875C8.69271 4.73438 8.35417 4.66406 8 4.66406C7.63021 4.66406 7.28385 4.73438 6.96094 4.875C6.63802 5.01562 6.35677 5.20833 6.11719 5.45312C5.8776 5.69271 5.6875 5.97656 5.54688 6.30469C5.40625 6.6276 5.33594 6.97135 5.33594 7.33594C5.33594 7.70573 5.40625 8.05208 5.54688 8.375C5.6875 8.69792 5.8776 8.97917 6.11719 9.21875C6.35677 9.45833 6.63802 9.64844 6.96094 9.78906C7.28385 9.92969 7.63021 10 8 10C8.36458 10 8.70833 9.92969 9.03125 9.78906C9.35938 9.64844 9.64323 9.45833 9.88281 9.21875C10.1224 8.97917 10.3125 8.69792 10.4531 8.375C10.5938 8.05208 10.6641 7.70573 10.6641 7.33594Z" fill="#BFBFBF"/>
</svg>
