<svg width="30" height="30" viewBox="0 0 30 30" fill="none" xmlns="http://www.w3.org/2000/svg">
<path d="M14.9375 22.5C15.375 22.5 15.7448 22.349 16.0469 22.0469C16.349 21.7448 16.5 21.375 16.5 20.9375C16.5 20.5 16.349 20.1302 16.0469 19.8281C15.7448 19.526 15.375 19.375 14.9375 19.375C14.5 19.375 14.1302 19.526 13.8281 19.8281C13.526 20.1302 13.375 20.5 13.375 20.9375C13.375 21.375 13.526 21.7448 13.8281 22.0469C14.1302 22.349 14.5 22.5 14.9375 22.5ZM15 27.5C13.2708 27.5 11.6458 27.1719 10.125 26.5156C8.60417 25.8594 7.28125 24.9688 6.15625 23.8438C5.03125 22.7188 4.14062 21.3958 3.48438 19.875C2.82812 18.3542 2.5 16.7292 2.5 15C2.5 13.2708 2.82812 11.6458 3.48438 10.125C4.14062 8.60417 5.03125 7.28125 6.15625 6.15625C7.28125 5.03125 8.60417 4.14062 10.125 3.48438C11.6458 2.82812 13.2708 2.5 15 2.5C16.7292 2.5 18.3542 2.82812 19.875 3.48438C21.3958 4.14062 22.7188 5.03125 23.8438 6.15625C24.9688 7.28125 25.8594 8.60417 26.5156 10.125C27.1719 11.6458 27.5 13.2708 27.5 15C27.5 16.7292 27.1719 18.3542 26.5156 19.875C25.8594 21.3958 24.9688 22.7188 23.8438 23.8438C22.7188 24.9688 21.3958 25.8594 19.875 26.5156C18.3542 27.1719 16.7292 27.5 15 27.5ZM15.125 9.625C15.6458 9.625 16.099 9.79167 16.4844 10.125C16.8698 10.4583 17.0625 10.875 17.0625 11.375C17.0625 11.8333 16.9219 12.2396 16.6406 12.5938C16.3594 12.9479 16.0417 13.2812 15.6875 13.5938C15.2083 14.0104 14.7865 14.4688 14.4219 14.9688C14.0573 15.4688 13.875 16.0312 13.875 16.6562C13.875 16.9479 13.9844 17.1927 14.2031 17.3906C14.4219 17.5885 14.6771 17.6875 14.9688 17.6875C15.2812 17.6875 15.5469 17.5833 15.7656 17.375C15.9844 17.1667 16.125 16.9062 16.1875 16.5938C16.2708 16.1562 16.4583 15.7656 16.75 15.4219C17.0417 15.0781 17.3542 14.75 17.6875 14.4375C18.1667 13.9792 18.5781 13.4792 18.9219 12.9375C19.2656 12.3958 19.4375 11.7917 19.4375 11.125C19.4375 10.0625 19.0052 9.19271 18.1406 8.51562C17.276 7.83854 16.2708 7.5 15.125 7.5C14.3333 7.5 13.5781 7.66667 12.8594 8C12.1406 8.33333 11.5938 8.84375 11.2188 9.53125C11.0729 9.78125 11.026 10.0469 11.0781 10.3281C11.1302 10.6094 11.2708 10.8229 11.5 10.9688C11.7917 11.1354 12.0938 11.1875 12.4062 11.125C12.7188 11.0625 12.9792 10.8854 13.1875 10.5938C13.4167 10.2812 13.7031 10.0417 14.0469 9.875C14.3906 9.70833 14.75 9.625 15.125 9.625Z" fill="white"/>
</svg>
