<svg width="123" height="96" viewBox="0 0 123 96" fill="none" xmlns="http://www.w3.org/2000/svg">
<path fill-rule="evenodd" clip-rule="evenodd" d="M1.9526 25.214C3.25434 26.5158 4.86736 27.1667 6.79167 27.1667H8.85617C9.64352 25.752 10.6391 24.4197 11.8428 23.1697C14.8864 20.0707 18.6217 18.5212 23.0488 18.5212V26.6701C23.8471 26.3446 24.5688 25.8593 25.2141 25.214C26.5158 23.9123 27.1667 22.2993 27.1667 20.375V6.79165C27.1667 4.86735 26.5158 3.25433 25.2141 1.95259C23.9123 0.650857 22.2993 -1.14441e-05 20.375 -1.14441e-05H6.79167C4.86736 -1.14441e-05 3.25434 0.650857 1.9526 1.95259C0.650866 3.25433 -1.90735e-06 4.86735 -1.90735e-06 6.79165V20.375C-1.90735e-06 22.2993 0.650866 23.9123 1.9526 25.214ZM6.7793 33.9583C4.86045 33.9611 3.25155 34.612 1.9526 35.9109C0.650866 37.2127 -1.90735e-06 38.8257 -1.90735e-06 40.75V54.3333C-1.90735e-06 56.2576 0.650866 57.8706 1.9526 59.1724C3.2516 60.4714 4.86057 61.1222 6.77951 61.125C6.77944 61.1181 6.77937 61.1112 6.7793 61.1042V33.9583ZM18.4839 61.125C18.4837 61.1181 18.4836 61.1112 18.4834 61.1042V34.8738C18.4834 34.6179 18.5163 34.3128 18.582 33.9583H20.375C22.2993 33.9583 23.9123 34.6092 25.2141 35.9109C26.5158 37.2127 27.1667 38.8257 27.1667 40.75V54.3333C27.1667 56.2576 26.5158 57.8706 25.2141 59.1724C23.9123 60.4741 22.2993 61.125 20.375 61.125H18.4839ZM8.2401 67.9167C9.34283 70.2822 11.0694 72.3278 13.4199 74.0535C16.6296 76.3223 19.8392 77.4568 23.0488 77.4568V68.4133C23.8471 68.7387 24.5688 69.224 25.2141 69.8692C26.5158 71.171 27.1667 72.784 27.1667 74.7083V88.2916C27.1667 90.216 26.5158 91.829 25.2141 93.1307C23.9123 94.4324 22.2993 95.0833 20.375 95.0833H6.79167C4.86736 95.0833 3.25434 94.4324 1.9526 93.1307C0.650866 91.829 -1.90735e-06 90.216 -1.90735e-06 88.2916V74.7083C-1.90735e-06 72.784 0.650866 71.171 1.9526 69.8692C3.25434 68.5675 4.86736 67.9167 6.79167 67.9167H8.2401ZM40.9771 27.1667C40.318 26.0203 39.4884 24.9093 38.4883 23.8337C37.0653 22.2636 35.5553 21.0415 33.9583 20.1674V6.79165C33.9583 4.86735 34.6092 3.25433 35.9109 1.95259C37.2127 0.650857 38.8257 -1.14441e-05 40.75 -1.14441e-05H115.458C117.383 -1.14441e-05 118.996 0.650857 120.297 1.95259C121.599 3.25433 122.25 4.86735 122.25 6.79165V20.375C122.25 22.2993 121.599 23.9123 120.297 25.214C120.174 25.3374 120.048 25.4549 119.919 25.5666V18.9363H89.7041V27.1667H81.7516C81.6923 27.0513 81.6315 26.9364 81.5693 26.822C78.6364 21.5649 73.5729 18.9363 66.3789 18.9363H64.3867V27.1667H59.8213V18.9363H48.2002V27.1667H40.9771ZM34.9234 37.153L42.8877 34.2097C42.8877 34.1258 42.887 34.042 42.8855 33.9583H48.2002V61.125H42.8877V47.74H33.9583V40.75C33.9583 39.3972 34.28 38.1982 34.9234 37.153ZM33.9583 75.4013V88.2916C33.9583 90.216 34.6092 91.829 35.9109 93.1307C37.2127 94.4324 38.8257 95.0833 40.75 95.0833H115.458C117.383 95.0833 118.996 94.4324 120.297 93.1307C121.599 91.829 122.25 90.216 122.25 88.2916V74.7083C122.25 72.784 121.599 71.171 120.297 69.8692C120.174 69.7459 120.048 69.6284 119.919 69.5167V77.0417H89.7041V67.9167H82.2493C81.3086 70.0347 79.8922 71.859 78 73.3894C74.901 75.8243 71.0273 77.0417 66.3789 77.0417H64.3867V67.9167H59.8213V77.0417H48.2002V67.9167H41.353C40.4726 69.4761 39.2133 71.0236 37.5752 72.5593C36.366 73.709 35.1604 74.6564 33.9583 75.4013ZM59.8213 61.125H71.9188C71.9886 60.7357 72.0234 60.3414 72.0234 59.9421C72.0234 57.1752 70.9167 55.183 68.7031 53.9656C67.5964 53.3569 66.3789 53.0525 65.0508 53.0525H64.3867V42.9255H65.0508C68.1497 42.9255 70.2803 41.5974 71.4424 38.9412C71.8298 38.0004 72.0234 37.032 72.0234 36.0359C72.0234 35.2887 71.9373 34.5962 71.7651 33.9583H59.8213V61.125ZM83.6049 33.9583C83.6313 34.3694 83.6445 34.7852 83.6445 35.2058C83.6445 40.0203 82.1781 43.9216 79.2451 46.9099C78.8024 47.2973 78.3874 47.657 78 47.989C81.2096 50.3686 83.0635 53.9932 83.5615 58.863C83.6169 59.5271 83.6445 60.1635 83.6445 60.7722C83.6445 60.8904 83.6436 61.008 83.6418 61.125H89.7041V33.9583H83.6049ZM101.408 33.9583V42.3445H112.116V54.0486H101.408V61.125H115.458C117.383 61.125 118.996 60.4741 120.297 59.1724C121.599 57.8706 122.25 56.2576 122.25 54.3333V40.75C122.25 38.8257 121.599 37.2127 120.297 35.9109C118.996 34.6092 117.383 33.9583 115.458 33.9583H101.408Z" fill="white"/>
</svg>
