<svg width="30" height="30" viewBox="0 0 30 30" fill="none" xmlns="http://www.w3.org/2000/svg">
<path d="M5 23.75V12.5C5 12.1042 5.08854 11.7292 5.26562 11.375C5.44271 11.0208 5.6875 10.7292 6 10.5L13.5 4.875C13.9375 4.54167 14.4375 4.375 15 4.375C15.5625 4.375 16.0625 4.54167 16.5 4.875L24 10.5C24.3125 10.7292 24.5573 11.0208 24.7344 11.375C24.9115 11.7292 25 12.1042 25 12.5V23.75C25 24.4375 24.7552 25.026 24.2656 25.5156C23.776 26.0052 23.1875 26.25 22.5 26.25H18.75C18.3958 26.25 18.099 26.1302 17.8594 25.8906C17.6198 25.651 17.5 25.3542 17.5 25V18.75C17.5 18.3958 17.3802 18.099 17.1406 17.8594C16.901 17.6198 16.6042 17.5 16.25 17.5H13.75C13.3958 17.5 13.099 17.6198 12.8594 17.8594C12.6198 18.099 12.5 18.3958 12.5 18.75V25C12.5 25.3542 12.3802 25.651 12.1406 25.8906C11.901 26.1302 11.6042 26.25 11.25 26.25H7.5C6.8125 26.25 6.22396 26.0052 5.73438 25.5156C5.24479 25.026 5 24.4375 5 23.75Z" fill="white"/>
</svg>
